{
  "accessors": [
    {
      "bufferView": 2,
      "componentType": 5126,
      "count": 591,
      "max": [
        1.2479596138000488,
        2.2952232360839844,
        4.046600818634033
      ],
      "min": [
        0.19155508279800415,
        0.3053869605064392,
        2.9255545139312744
      ],
      "type": "VEC3"
    },
    {
      "bufferView": 2,
      "byteOffset": 7092,
      "componentType": 5126,
      "count": 591,
      "max": [
        0.9987691044807434,
        1.0,
        1.0
      ],
      "min": [
        -0.9999993443489075,
        -1.0,
        -1.0
      ],
      "type": "VEC3"
    },
    {
      "bufferView": 1,
      "componentType": 5126,
      "count": 591,
      "max": [
        0.875,
        1.0
      ],
      "min": [
        0.125,
        -7.450580596923828e-08
      ],
      "type": "VEC2"
    },
    {
      "bufferView": 0,
      "componentType": 5125,
      "count": 1965,
      "type": "SCALAR"
    }
  ],
  "asset": {
    "extras": {
      "author": "Mohammed.Adnan (https://sketchfab.com/Mohammed.Adnan)",
      "license": "CC-BY-4.0 (http://creativecommons.org/licenses/by/4.0/)",
      "source": "https://sketchfab.com/3d-models/white-knight-8360cef3f8ab4eff9410086effe668b5",
      "title": "White Knight"
    },
    "generator": "Sketchfab-12.68.0",
    "version": "2.0"
  },
  "bufferViews": [
    {
      "buffer": 0,
      "byteLength": 7860,
      "name": "floatBufferViews",
      "target": 34963
    },
    {
      "buffer": 0,
      "byteLength": 4728,
      "byteOffset": 7860,
      "byteStride": 8,
      "name": "floatBufferViews",
      "target": 34962
    },
    {
      "buffer": 0,
      "byteLength": 14184,
      "byteOffset": 12588,
      "byteStride": 12,
      "name": "floatBufferViews",
      "target": 34962
    }
  ],
  "buffers": [
    {
      "byteLength": 26772,
      "uri": "scene.bin"
    }
  ],
  "materials": [
    {
      "doubleSided": true,
      "name": "blinn5",
      "pbrMetallicRoughness": {
        "baseColorFactor": [
          1.0,
          0.983434,
          0.513,
          1.0
        ],
        "metallicFactor": 0.0,
        "roughnessFactor": 0.9207483816249483
      }
    }
  ],
  "meshes": [
    {
      "name": "White_Knight_blinn5_0",
      "primitives": [
        {
          "attributes": {
            "NORMAL": 1,
            "POSITION": 0,
            "TEXCOORD_0": 2
          },
          "indices": 3,
          "material": 0,
          "mode": 4
        }
      ]
    }
  ],
  "nodes": [
    {
      "children": [
        1
      ],
      "matrix": [
        1.0,
        0.0,
        0.0,
        0.0,
        0.0,
        2.220446049250313e-16,
        -1.0,
        0.0,
        0.0,
        1.0,
        2.220446049250313e-16,
        0.0,
        0.0,
        0.0,
        0.0,
        1.0
      ],
      "name": "Sketchfab_model"
    },
    {
      "children": [
        2
      ],
      "matrix": [
        1.0,
        0.0,
        0.0,
        0.0,
        0.0,
        0.0,
        1.0,
        0.0,
        0.0,
        -1.0,
        0.0,
        0.0,
        0.0,
        0.0,
        0.0,
        1.0
      ],
      "name": "1516c3574dae44da8661aae8cdc3dd17.fbx"
    },
    {
      "children": [
        3
      ],
      "name": "RootNode"
    },
    {
      "children": [
        4
      ],
      "matrix": [
        1.561363935470581,
        0.0,
        0.0,
        0.0,
        0.0,
        1.561363935470581,
        0.0,
        0.0,
        0.0,
        0.0,
        1.561363935470581,
        0.0,
        5.045892238616943,
        1.4653195142745972,
        -22.59896469116211,
        1.0
      ],
      "name": "White_Knight"
    },
    {
      "mesh": 0,
      "name": "White_Knight_blinn5_0"
    }
  ],
  "scene": 0,
  "scenes": [
    {
      "name": "Sketchfab_Scene",
      "nodes": [
        0
      ]
    }
  ]
}
