{
  "accessors": [
    {
      "bufferView": 2,
      "componentType": 5126,
      "count": 19475,
      "max": [
        0.9903209805488586,
        1.2015235424041748,
        3.0501739978790283
      ],
      "min": [
        -0.9903210401535034,
        -0.9903210401535034,
        -1.199988603591919
      ],
      "type": "VEC3"
    },
    {
      "bufferView": 2,
      "byteOffset": 233700,
      "componentType": 5126,
      "count": 19475,
      "max": [
        1.0,
        0.9999980926513672,
        0.9999996423721313
      ],
      "min": [
        -1.0,
        -0.9999973773956299,
        -1.0
      ],
      "type": "VEC3"
    },
    {
      "bufferView": 1,
      "componentType": 5126,
      "count": 19475,
      "max": [
        1.0000001192092896,
        1.0000001192092896
      ],
      "min": [
        0.0,
        0.0
      ],
      "type": "VEC2"
    },
    {
      "bufferView": 0,
      "componentType": 5125,
      "count": 109449,
      "type": "SCALAR"
    },
    {
      "bufferView": 2,
      "byteOffset": 467400,
      "componentType": 5126,
      "count": 801,
      "max": [
        0.959906816482544,
        0.9591396450996399,
        -1.1983758211135864
      ],
      "min": [
        -0.9898577332496643,
        -0.9595891237258911,
        -1.2624727487564087
      ],
      "type": "VEC3"
    },
    {
      "bufferView": 2,
      "byteOffset": 477012,
      "componentType": 5126,
      "count": 801,
      "max": [
        0.9907626509666443,
        0.9993588924407959,
        1.0
      ],
      "min": [
        -0.9993654489517212,
        -0.9993588924407959,
        0.028840523213148117
      ],
      "type": "VEC3"
    },
    {
      "bufferView": 1,
      "byteOffset": 155800,
      "componentType": 5126,
      "count": 801,
      "max": [
        0.0,
        0.0
      ],
      "min": [
        0.0,
        0.0
      ],
      "type": "VEC2"
    },
    {
      "bufferView": 0,
      "byteOffset": 437796,
      "componentType": 5125,
      "count": 4608,
      "type": "SCALAR"
    }
  ],
  "asset": {
    "extras": {
      "author": "🅳🅴🆅🅷🆄🅱 (https://sketchfab.com/devhub.developer)",
      "license": "CC-BY-4.0 (http://creativecommons.org/licenses/by/4.0/)",
      "source": "https://sketchfab.com/3d-models/3d-wooden-chess-knight-black-67692c284381485ba01c3cfaa30ca7d1",
      "title": "3D Wooden Chess Knight Black"
    },
    "generator": "Sketchfab-12.68.0",
    "version": "2.0"
  },
  "bufferViews": [
    {
      "buffer": 0,
      "byteLength": 456228,
      "name": "floatBufferViews",
      "target": 34963
    },
    {
      "buffer": 0,
      "byteLength": 162208,
      "byteOffset": 456228,
      "byteStride": 8,
      "name": "floatBufferViews",
      "target": 34962
    },
    {
      "buffer": 0,
      "byteLength": 486624,
      "byteOffset": 618436,
      "byteStride": 12,
      "name": "floatBufferViews",
      "target": 34962
    }
  ],
  "buffers": [
    {
      "byteLength": 1105060,
      "uri": "scene.bin"
    }
  ],
  "images": [
    {
      "uri": "textures/Knight_Black_baseColor.png"
    },
    {
      "uri": "textures/Green_Base_baseColor.png"
    }
  ],
  "materials": [
    {
      "doubleSided": true,
      "name": "Knight_Black",
      "pbrMetallicRoughness": {
        "baseColorTexture": {
          "index": 0
        },
        "metallicFactor": 0.0,
        "roughnessFactor": 0.8211145618000169
      }
    },
    {
      "doubleSided": true,
      "name": "Green_Base",
      "pbrMetallicRoughness": {
        "baseColorTexture": {
          "index": 1
        },
        "metallicFactor": 0.0,
        "roughnessFactor": 0.8211145618000169
      }
    }
  ],
  "meshes": [
    {
      "name": "Knight_Knight Black_0",
      "primitives": [
        {
          "attributes": {
            "NORMAL": 1,
            "POSITION": 0,
            "TEXCOORD_0": 2
          },
          "indices": 3,
          "material": 0,
          "mode": 4
        }
      ]
    },
    {
      "name": "Knight_Green Base_0",
      "primitives": [
        {
          "attributes": {
            "NORMAL": 5,
            "POSITION": 4,
            "TEXCOORD_0": 6
          },
          "indices": 7,
          "material": 1,
          "mode": 4
        }
      ]
    }
  ],
  "nodes": [
    {
      "children": [
        1
      ],
      "matrix": [
        1.0,
        0.0,
        0.0,
        0.0,
        0.0,
        2.220446049250313e-16,
        -1.0,
        0.0,
        0.0,
        1.0,
        2.220446049250313e-16,
        0.0,
        0.0,
        0.0,
        0.0,
        1.0
      ],
      "name": "Sketchfab_model"
    },
    {
      "children": [
        2
      ],
      "matrix": [
        1.0,
        0.0,
        0.0,
        0.0,
        0.0,
        0.0,
        1.0,
        0.0,
        0.0,
        -1.0,
        0.0,
        0.0,
        0.0,
        0.0,
        0.0,
        1.0
      ],
      "name": "91b250386db846c3a76a309db9d59b70.fbx"
    },
    {
      "children": [
        3
      ],
      "name": "RootNode"
    },
    {
      "children": [
        4,
        5
      ],
      "matrix": [
        100.0,
        0.0,
        0.0,
        0.0,
        0.0,
        -4.371139006309477e-06,
        -99.9999999999999,
        0.0,
        0.0,
        99.9999999999999,
        -4.371139006309477e-06,
        0.0,
        0.0,
        -93.89466094970703,
        0.0,
        1.0
      ],
      "name": "Knight"
    },
    {
      "mesh": 0,
      "name": "Knight_Knight Black_0"
    },
    {
      "mesh": 1,
      "name": "Knight_Green Base_0"
    }
  ],
  "samplers": [
    {
      "magFilter": 9729,
      "minFilter": 9987,
      "wrapS": 10497,
      "wrapT": 10497
    }
  ],
  "scene": 0,
  "scenes": [
    {
      "name": "Sketchfab_Scene",
      "nodes": [
        0
      ]
    }
  ],
  "textures": [
    {
      "sampler": 0,
      "source": 0
    },
    {
      "sampler": 0,
      "source": 1
    }
  ]
}
