{
  "accessors": [
    {
      "bufferView": 2,
      "componentType": 5126,
      "count": 2630,
      "max": [
        2.261384963989258,
        1.9745609760284424,
        4.023021697998047
      ],
      "min": [
        1.2545359134674072,
        0.3148622512817383,
        3.0161666870117188
      ],
      "type": "VEC3"
    },
    {
      "bufferView": 2,
      "byteOffset": 31560,
      "componentType": 5126,
      "count": 2630,
      "max": [
        1.0,
        1.0,
        0.9999911189079285
      ],
      "min": [
        -0.9999403357505798,
        -1.0,
        -1.0
      ],
      "type": "VEC3"
    },
    {
      "bufferView": 1,
      "componentType": 5126,
      "count": 2630,
      "max": [
        1.0,
        1.0
      ],
      "min": [
        0.0,
        -7.450580596923828e-08
      ],
      "type": "VEC2"
    },
    {
      "bufferView": 0,
      "componentType": 5125,
      "count": 4440,
      "type": "SCALAR"
    }
  ],
  "asset": {
    "extras": {
      "author": "Mohammed.Adnan (https://sketchfab.com/Mohammed.Adnan)",
      "license": "CC-BY-4.0 (http://creativecommons.org/licenses/by/4.0/)",
      "source": "https://sketchfab.com/3d-models/white-rook-39c351c03806468cac4085eb742b23ee",
      "title": "White Rook"
    },
    "generator": "Sketchfab-12.68.0",
    "version": "2.0"
  },
  "bufferViews": [
    {
      "buffer": 0,
      "byteLength": 17760,
      "name": "floatBufferViews",
      "target": 34963
    },
    {
      "buffer": 0,
      "byteLength": 21040,
      "byteOffset": 17760,
      "byteStride": 8,
      "name": "floatBufferViews",
      "target": 34962
    },
    {
      "buffer": 0,
      "byteLength": 63120,
      "byteOffset": 38800,
      "byteStride": 12,
      "name": "floatBufferViews",
      "target": 34962
    }
  ],
  "buffers": [
    {
      "byteLength": 101920,
      "uri": "scene.bin"
    }
  ],
  "materials": [
    {
      "doubleSided": true,
      "name": "blinn5",
      "pbrMetallicRoughness": {
        "baseColorFactor": [
          1.0,
          0.983434,
          0.513,
          1.0
        ],
        "metallicFactor": 0.0,
        "roughnessFactor": 0.9207483816249483
      }
    }
  ],
  "meshes": [
    {
      "name": "White_Rook_blinn5_0",
      "primitives": [
        {
          "attributes": {
            "NORMAL": 1,
            "POSITION": 0,
            "TEXCOORD_0": 2
          },
          "indices": 3,
          "material": 0,
          "mode": 4
        }
      ]
    }
  ],
  "nodes": [
    {
      "children": [
        1
      ],
      "matrix": [
        1.0,
        0.0,
        0.0,
        0.0,
        0.0,
        2.220446049250313e-16,
        -1.0,
        0.0,
        0.0,
        1.0,
        2.220446049250313e-16,
        0.0,
        0.0,
        0.0,
        0.0,
        1.0
      ],
      "name": "Sketchfab_model"
    },
    {
      "children": [
        2
      ],
      "matrix": [
        1.0,
        0.0,
        0.0,
        0.0,
        0.0,
        0.0,
        1.0,
        0.0,
        0.0,
        -1.0,
        0.0,
        0.0,
        0.0,
        0.0,
        0.0,
        1.0
      ],
      "name": "a6ac31a0156f450fae583ddc3157d5f6.fbx"
    },
    {
      "children": [
        3
      ],
      "name": "RootNode"
    },
    {
      "children": [
        4
      ],
      "matrix": [
        1.561363935470581,
        0.0,
        0.0,
        0.0,
        0.0,
        1.561363935470581,
        0.0,
        0.0,
        0.0,
        0.0,
        1.561363935470581,
        0.0,
        6.168787002563477,
        1.9824187755584717,
        -22.617780685424805,
        1.0
      ],
      "name": "White_Rook"
    },
    {
      "mesh": 0,
      "name": "White_Rook_blinn5_0"
    }
  ],
  "scene": 0,
  "scenes": [
    {
      "name": "Sketchfab_Scene",
      "nodes": [
        0
      ]
    }
  ]
}
